<svg xmlns="http://www.w3.org/2000/svg" width="658.846" height="348.347" viewBox="0 0 658.846 348.347">
  <g id="グループ_15" data-name="グループ 15" transform="translate(-515.135 -310.311)">
    <path id="パス_5" data-name="パス 5" d="M0,0,589.129,52.064l69.718,229.142L11.029,348.346Z" transform="translate(515.135 310.311)" fill="#f5f5f5"/>
    <path id="パス_5_-_アウトライン" data-name="パス 5 - アウトライン" d="M3.959,3.358,15.359,343.8,656.22,278.835,587.994,54,3.959,3.358M0,0,589.129,52.064l69.718,229.142L11.029,348.346Z" transform="translate(515.135 310.311)" fill="#707070"/>
    <path id="パス_6" data-name="パス 6" d="M4.121-3.9l-2.559.039a.309.309,0,0,1-.2-.039.336.336,0,0,1-.029-.176V-5.479a.332.332,0,0,1,.039-.205.365.365,0,0,1,.186-.029l2.559.039H8.838A11.945,11.945,0,0,0,8.7-6.992q.186,0,2.139.117.3.029.3.225a.45.45,0,0,1-.059.176.591.591,0,0,0-.068.166,1.832,1.832,0,0,0-.1.635h5.02l2.539-.039a.356.356,0,0,1,.215.039.394.394,0,0,1,.029.2v1.406q0,.146-.039.181a.371.371,0,0,1-.205.034L15.938-3.9H12.344a16.857,16.857,0,0,0,6.914,3.2,4.973,4.973,0,0,0-.82,1.3q-.225.5-.4.5a1.673,1.673,0,0,1-.479-.117,15.321,15.321,0,0,1-6.68-4.16l.1,4.5q0,.156-.039.186a.336.336,0,0,1-.176.029H9.023q-.166,0-.2-.039A.336.336,0,0,1,8.8,1.328q0-.137.02-.752.049-1.885.059-3.613A15.4,15.4,0,0,1,2.5.986a3.277,3.277,0,0,1-.479.137q-.156,0-.4-.518A4.456,4.456,0,0,0,.84-.654,15.776,15.776,0,0,0,7.48-3.9ZM11.2-14.687l2.061-.039q.156,0,.186.039a.365.365,0,0,1,.029.186l-.039,1.924v3.184L13.477-7.5q0,.166-.039.2a.336.336,0,0,1-.176.029L11.2-7.314H8.721l-2.031.039a.356.356,0,0,1-.215-.039A.365.365,0,0,1,6.445-7.5l.039-1.895v-3.184L6.445-14.5q0-.166.049-.2a.394.394,0,0,1,.2-.029l1.8.039q.225-.527.42-1.113a4.994,4.994,0,0,0,.2-.986q1.348.137,1.934.244.264.059.264.234a.364.364,0,0,1-.156.283,1.291,1.291,0,0,0-.264.459,8.656,8.656,0,0,1-.381.879Zm.439,5.85v-1.455H8.281v1.455Zm0-4.346H8.281v1.406h3.359ZM5.4-11.162q.029.166.381,1.27a1.864,1.864,0,0,1,.117.5q0,.176-.42.459-1.172.811-2.539,1.6a1.319,1.319,0,0,0-.537.439.3.3,0,0,1-.244.176.351.351,0,0,1-.283-.2,10.218,10.218,0,0,1-.811-1.865,9.536,9.536,0,0,0,1.26-.5A21.366,21.366,0,0,0,5.4-11.162Zm9.824.186A26.608,26.608,0,0,1,18.76-8.8q.117.1.117.176a.469.469,0,0,1-.1.225L18-7.139q-.117.205-.2.205a.3.3,0,0,1-.186-.1,21.788,21.788,0,0,0-3.525-2.344q-.137-.088-.137-.166a.366.366,0,0,1,.107-.215l.8-1.1q.117-.186.2-.186A.412.412,0,0,1,15.225-10.977Zm-1.367-1.738a12.194,12.194,0,0,0,2.4-2.207,3.462,3.462,0,0,0,.6-.859,11.314,11.314,0,0,1,1.445,1.1q.264.264.264.361,0,.166-.264.283a1.714,1.714,0,0,0-.557.439,18.646,18.646,0,0,1-2,1.836q-.332.3-.459.3t-.439-.381A5.015,5.015,0,0,0,13.857-12.715Zm-10.9-2.822a15.361,15.361,0,0,1,2.559,2.158q.107.107.107.166a.522.522,0,0,1-.146.254l-.957,1.1q-.146.176-.225.176T4.141-11.8a16.028,16.028,0,0,0-2.549-2.285q-.137-.1-.137-.156t.166-.225l.938-.977q.186-.176.234-.176A.384.384,0,0,1,2.959-15.537Zm22.383-.244a24.927,24.927,0,0,1,2.5.361q.479.117.479.381a2.42,2.42,0,0,1-.205.664,13.438,13.438,0,0,0-.273,2.432q-.3,4.629-.3,7.744a3.66,3.66,0,0,0,.371,2.07,1.948,1.948,0,0,0,1.465.41,7.753,7.753,0,0,0,3.506-.986,13.2,13.2,0,0,0,3.506-2.7,6.537,6.537,0,0,0,.459,1.9A1.51,1.51,0,0,1,37-3.018a.94.94,0,0,1-.4.625A11.252,11.252,0,0,1,32.715-.059a10.786,10.786,0,0,1-3.691.664A3.681,3.681,0,0,1,26.064-.42a4.734,4.734,0,0,1-.8-3.057q0-1.865.283-8.643.029-1.016.029-1.387A9.438,9.438,0,0,0,25.342-15.781Zm17,1.885a7.831,7.831,0,0,1,2.539.654q.322.146.322.361a1.619,1.619,0,0,1-.166.557,7.365,7.365,0,0,0-.176,1.963A26.6,26.6,0,0,0,45.225-5.8q.518,2.939,1.641,2.939.508,0,.967-.7a11.105,11.105,0,0,0,.947-2.08A8.379,8.379,0,0,0,50.059-4.1a.565.565,0,0,1,.205.43,1,1,0,0,1-.059.313A5.647,5.647,0,0,1,48.623-.937a2.773,2.773,0,0,1-1.816.693,2.971,2.971,0,0,1-2.393-1.523,8.887,8.887,0,0,1-1.348-3.691,35.11,35.11,0,0,1-.479-5.82A12.255,12.255,0,0,0,42.344-13.9Zm10.244,2.832q.986-.625,1.572-.918a.688.688,0,0,1,.225-.078.325.325,0,0,1,.215.117,11.834,11.834,0,0,1,2.588,3.32A12.168,12.168,0,0,1,58.516-5.1a.438.438,0,0,1,.02.117q0,.176-.234.322a7.43,7.43,0,0,1-1.562.8.619.619,0,0,1-.176.029q-.2,0-.244-.254a16,16,0,0,0-1.475-4.023A13.471,13.471,0,0,0,52.588-11.064Zm13.564-4.795a11.338,11.338,0,0,1,2.627.244q.361.088.361.313l-.146.84q0,.2.1,1.348a30.358,30.358,0,0,0,.645,3.438q.6-.322,1.465-.781l1.377-.742a5.092,5.092,0,0,0,1.377-1.074A9.978,9.978,0,0,1,75.42-10.4a.781.781,0,0,1,.137.42q0,.342-.4.4a9.592,9.592,0,0,0-1.924.605,28.8,28.8,0,0,0-4.7,2.334q-2.363,1.553-2.363,3.027A1.366,1.366,0,0,0,67-2.275a6.034,6.034,0,0,0,2.354.342,34.169,34.169,0,0,0,6.1-.469,1.068,1.068,0,0,1,.127-.01q.186,0,.234.254a17.394,17.394,0,0,1,.2,1.865q.029.3-.361.332a47,47,0,0,1-5.957.3q-5.781,0-5.781-3.838a4.541,4.541,0,0,1,1.162-3.027,11.556,11.556,0,0,1,2.637-2.139,28.8,28.8,0,0,1-1.035-4.873A9.54,9.54,0,0,0,66.152-15.859Zm27.686,0,2.773-.039q.166,0,.2.039a.365.365,0,0,1,.029.186L96.8-13.564v4.287l.039,2.109a.371.371,0,0,1-.034.205q-.034.039-.19.039l-2.773-.039H86.152l-2.773.039q-.166,0-.2-.049a.394.394,0,0,1-.029-.2l.039-2.109v-4.287l-.039-2.109q0-.166.039-.2a.365.365,0,0,1,.186-.029l2.773.039Zm.9,7.2v-1.953H90.918v1.953Zm0-5.459H90.918v1.9h3.818ZM85.254-8.662H88.9v-1.953H85.254Zm0-3.555H88.9v-1.9H85.254Zm7.861,9.053a6.8,6.8,0,0,0,1.543.605,1.1,1.1,0,0,1,.4.156.28.28,0,0,1,.088.234q0,.088-.02.293A3.232,3.232,0,0,1,93.945.605a4.354,4.354,0,0,1-1.641.449q-.82.088-2.4.088a7.7,7.7,0,0,1-3.34-.459,1.878,1.878,0,0,1-.7-1.7V-3.965a12.439,12.439,0,0,0-.1-1.65q.84,0,2.041.117.361.049.361.234a.7.7,0,0,1-.1.342,2.038,2.038,0,0,0-.127.859V-1.8q0,.645.3.82a4.622,4.622,0,0,0,1.816.215,4.878,4.878,0,0,0,2.52-.4Q93.086-1.553,93.115-3.164Zm-8.7-1.494q.264.078.264.205a.438.438,0,0,1-.02.117A15.472,15.472,0,0,1,82.676.059Q82.6.2,82.52.2a.6.6,0,0,1-.225-.1L81-.742q-.225-.137-.225-.234a.354.354,0,0,1,.088-.186A11.813,11.813,0,0,0,82.734-5q.049-.176.117-.176a.975.975,0,0,1,.225.078Zm12.344-.625a21.684,21.684,0,0,1,2.344,3.8.45.45,0,0,1,.039.156q0,.117-.205.225L97.6-.381a.778.778,0,0,1-.264.1q-.078,0-.137-.137a18.444,18.444,0,0,0-2.246-3.936.4.4,0,0,1-.059-.146q0-.059.205-.176l1.26-.664a.481.481,0,0,1,.215-.078Q96.65-5.42,96.758-5.283Zm-6.582-1.4A14.652,14.652,0,0,1,92.6-4.3a.268.268,0,0,1,.068.156q0,.088-.186.244l-1.1.879a.563.563,0,0,1-.244.127q-.068,0-.156-.107a12.7,12.7,0,0,0-2.285-2.559.3.3,0,0,1-.1-.186q0-.088.166-.2l1-.742a.382.382,0,0,1,.215-.1A.379.379,0,0,1,90.176-6.68ZM107.354-16.5a36.74,36.74,0,0,0,5.742,1.6.267.267,0,0,1,.244.283.73.73,0,0,1-.02.156,10.25,10.25,0,0,1-.537,1.65.293.293,0,0,1-.273.225.216.216,0,0,1-.068-.01,27.265,27.265,0,0,1-5.586-1.68.255.255,0,0,1-.2-.254.342.342,0,0,1,.02-.107A16.488,16.488,0,0,1,107.354-16.5Zm-4.014,6.221a27.746,27.746,0,0,0,4.18-.332q1.963-.312,3.477-.645a3.3,3.3,0,0,0,.8-.322.962.962,0,0,1,.439-.137.758.758,0,0,1,.342.137,4.559,4.559,0,0,1,1.182,1.064.644.644,0,0,1,.215.459q0,.283-.361.459a4.135,4.135,0,0,0-.635.459q-1.787,1.689-3.643,3.682a2.488,2.488,0,0,1,.723-.1,1.942,1.942,0,0,1,1.387.547,2.854,2.854,0,0,1,.791,1.475A3.132,3.132,0,0,0,113-1.885a2.423,2.423,0,0,0,1.436.313,14.185,14.185,0,0,0,3.105-.361.321.321,0,0,1,.078-.01q.225,0,.283.3a9.9,9.9,0,0,1,.137,1.768q0,.264-.361.313A16.133,16.133,0,0,1,114.736.7,5.41,5.41,0,0,1,111.5-.029a3.344,3.344,0,0,1-1.084-2.031,5.4,5.4,0,0,0-.527-1.533.836.836,0,0,0-.732-.391,2.866,2.866,0,0,0-1.885,1.006q-1.113,1.143-3.037,3.525a.343.343,0,0,1-.283.137.364.364,0,0,1-.215-.078,10.471,10.471,0,0,1-1.406-1.221.289.289,0,0,1-.1-.205.45.45,0,0,1,.156-.312l3.779-3.848q.459-.469,1.6-1.7,1.562-1.7,2.363-2.559-.908.244-2.285.586-1.465.371-1.875.479a7.5,7.5,0,0,0-1.084.361.958.958,0,0,1-.42.117q-.2,0-.332-.342A15.287,15.287,0,0,1,103.34-10.283Zm27.285-2.979q-1.875.342-3.867.762a5.927,5.927,0,0,0-.84.244,1.137,1.137,0,0,1-.4.1.473.473,0,0,1-.439-.342,11.311,11.311,0,0,1-.693-2.158,8.135,8.135,0,0,0,1.084.068q.391,0,.771-.029,2.061-.205,4.541-.684a4.947,4.947,0,0,0,1.094-.3.981.981,0,0,1,.381-.156.8.8,0,0,1,.459.156,7.89,7.89,0,0,1,1.338,1.279.754.754,0,0,1,.225.488.507.507,0,0,1-.342.479,4.394,4.394,0,0,0-.879.635q-.615.605-2.275,2.275-1.24,1.24-2.041,2.012l.02.059a6.391,6.391,0,0,1,3.184-.9,4.887,4.887,0,0,1,3.75,1.494A4.684,4.684,0,0,1,136.9-4.473a4.81,4.81,0,0,1-2.139,4.18,8.273,8.273,0,0,1-4.844,1.3,4.8,4.8,0,0,1-3.105-.879,2.515,2.515,0,0,1-.937-2.061,2.205,2.205,0,0,1,.928-1.807,2.984,2.984,0,0,1,1.895-.635,3.774,3.774,0,0,1,2.52.84,3.883,3.883,0,0,1,1.24,2.08,3.559,3.559,0,0,0,1.611-1.289A3.318,3.318,0,0,0,134.5-4.5a2.856,2.856,0,0,0-.986-2.295,3.215,3.215,0,0,0-2.158-.723A7.854,7.854,0,0,0,126.24-5.4q-.381.352-1.738,1.7-.225.225-.342.225a.514.514,0,0,1-.3-.176,8.7,8.7,0,0,1-1.172-1.309.249.249,0,0,1-.068-.166.456.456,0,0,1,.166-.293,51.5,51.5,0,0,0,4.736-4.414Q129.561-11.943,130.625-13.262Zm-.146,12.3q-.4-1.719-1.7-1.719a1.02,1.02,0,0,0-.723.254.648.648,0,0,0-.234.508q0,1.035,1.738,1.035A4.828,4.828,0,0,0,130.479-.957ZM146.416-.4q0,.146-.039.181a.345.345,0,0,1-.2.034h-1.23q-.156,0-.186-.039a.336.336,0,0,1-.029-.176v-.762h-1.582V.381q0,.156-.039.186a.336.336,0,0,1-.176.029h-1.309q-.156,0-.186-.039a.336.336,0,0,1-.029-.176l.039-7.1v-3.867l-.039-5.234a.356.356,0,0,1,.039-.215.365.365,0,0,1,.186-.029l1.572.039h1.426l1.533-.039q.176,0,.215.049a.394.394,0,0,1,.029.2l-.039,4.453v6.66a8.386,8.386,0,0,0,2.178-3.516h-1.24q-.166,0-.205-.049a.394.394,0,0,1-.029-.2l.039-1.641v-.42l-.039-.811q0-.166.049-.2a.394.394,0,0,1,.2-.029l1.328.039a7.088,7.088,0,0,0-.5-1.3.389.389,0,0,1-.059-.166q0-.078.244-.156l1-.322a.628.628,0,0,1,.186-.039q.117,0,.215.166a10.559,10.559,0,0,1,.674,1.816h1.748a14.189,14.189,0,0,0-.566-1.68.549.549,0,0,1-.059-.166q0-.088.225-.156l1.016-.293a.779.779,0,0,1,.205-.049q.107,0,.215.186a8.236,8.236,0,0,1,.742,2.158h.8a11.883,11.883,0,0,0,.879-1.836,9.8,9.8,0,0,0,.3-1.084,8.794,8.794,0,0,1,1.67.439q.244.088.244.283a.291.291,0,0,1-.156.254,1.109,1.109,0,0,0-.322.42,11.011,11.011,0,0,1-.742,1.523l2.109-.039q.156,0,.186.039a.365.365,0,0,1,.029.186l-.039.713v.518l.039,1.641a.356.356,0,0,1-.039.215.365.365,0,0,1-.186.029h-1.377a1.99,1.99,0,0,0-.01.215l.01.586,1.143-.039a.332.332,0,0,1,.205.039.394.394,0,0,1,.029.2v1.309a.345.345,0,0,1-.034.2q-.034.039-.2.039l-.361-.01q-.361-.02-.781-.029v2.656l1.582-.039q.156,0,.186.039a.365.365,0,0,1,.029.186V-1.5a.318.318,0,0,1-.034.19.294.294,0,0,1-.181.034l-.488-.02-1.094-.02v.176l.039,2.578q0,.205-.2.205H155.85q-.215,0-.215-.205l.039-2.578v-.176h-1.641l-2.139.039a.309.309,0,0,1-.2-.039.365.365,0,0,1-.029-.186V-2.881a.318.318,0,0,1,.034-.19.318.318,0,0,1,.19-.034l1.318.039V-5.7a2.3,2.3,0,0,1-.283.02q-.156,0-.186-.049a.365.365,0,0,1-.029-.186V-7.227a.332.332,0,0,1,.039-.205.336.336,0,0,1,.176-.029l1.807.039h.938a11.777,11.777,0,0,0-.117-1.738,13.085,13.085,0,0,1,1.533.117v-.84h-8.213V-9.4q1.24.313,1.4.361.342.107.342.283a.48.48,0,0,1-.176.293,1.364,1.364,0,0,0-.3.586l-.078.254h.977a.681.681,0,0,0,.342-.078.434.434,0,0,1,.215-.078q.2,0,.664.557.439.5.439.7a.407.407,0,0,1-.137.244,1.293,1.293,0,0,0-.283.6A12.562,12.562,0,0,1,150.42-1.4a11.538,11.538,0,0,1-2.783,2.754.9.9,0,0,1-.42.2q-.137,0-.381-.3a3.633,3.633,0,0,0-1-.869,9.75,9.75,0,0,0,3.291-2.9,9.977,9.977,0,0,0-.879-.84q-.117-.1-.117-.166,0-.1.166-.254l.576-.586a.47.47,0,0,1,.264-.146.33.33,0,0,1,.156.049q.361.273.635.518a11.067,11.067,0,0,0,.723-2.119h-1.279a11.021,11.021,0,0,1-1.8,2.441q-.234.264-.342.264t-.361-.283a4.277,4.277,0,0,0-.5-.537Zm-3.262-2.48h1.582V-5.723h-1.582Zm1.582-11.426h-1.582v2.744h1.582Zm-1.582,6.982h1.582V-9.961h-1.582Zm11.66,4.258h.859V-5.723h-.859ZM156.7-16.6a6.538,6.538,0,0,1,1.357,1.016.517.517,0,0,1,.176.322q0,.225-.42.264a4.042,4.042,0,0,0-.84.156,63.2,63.2,0,0,1-8.379,1.084q-.205.01-.3.01a.407.407,0,0,1-.342-.127,2.4,2.4,0,0,1-.215-.459l-.5-1.025a51.744,51.744,0,0,0,8.379-.879A4.549,4.549,0,0,0,156.7-16.6Zm17.08,15.82a13.419,13.419,0,0,0,1.68.1.923.923,0,0,0,.684-.186.964.964,0,0,0,.137-.6V-9.443H173l-2.187.039q-.166,0-.2-.049a.394.394,0,0,1-.029-.2l.039-1.748V-14.16l-.039-1.758a.356.356,0,0,1,.039-.215.365.365,0,0,1,.186-.029l2.188.039h2.939l2.227-.039q.156,0,.186.049a.394.394,0,0,1,.029.2l-.039,2.637v8.213l.078,3.984a2.428,2.428,0,0,1-.576,1.846,1.994,1.994,0,0,1-.977.43,11.99,11.99,0,0,1-1.885.107q-.479,0-.557-.088a1.385,1.385,0,0,1-.166-.537A6.145,6.145,0,0,0,173.779-.781Zm-1.191-10.1h3.691v-1.2h-3.691Zm3.691-3.74h-3.691v1.182h3.691Zm-9.3-1.5L169-16.162q.137,0,.166.049a.394.394,0,0,1,.029.2l-.039,1.895v2.48l.039,1.895a.356.356,0,0,1-.039.215A.255.255,0,0,1,169-9.4l-2.021-.039H163.74v6.475l.039,4.268q0,.156-.039.186a.336.336,0,0,1-.176.029h-1.709a.294.294,0,0,1-.181-.034.294.294,0,0,1-.034-.181l.039-4.268v-8.652l-.039-4.3a.356.356,0,0,1,.039-.215.365.365,0,0,1,.186-.029l2.354.039Zm.215,5.244v-1.2H163.74v1.2Zm0-3.74H163.74v1.182H167.2ZM167.861.137h-1.416q-.166,0-.2-.039a.394.394,0,0,1-.029-.2l.039-3.623V-5.479l-.039-2.5q0-.166.039-.2a.365.365,0,0,1,.186-.029l2.139.039h2.7l2.148-.039q.156,0,.186.039a.365.365,0,0,1,.029.186L173.6-5.82v1.982L173.643-.3a.318.318,0,0,1-.034.19.294.294,0,0,1-.181.034h-1.445q-.156,0-.186-.039a.365.365,0,0,1-.029-.186V-.918h-3.662V-.1q0,.166-.039.2A.371.371,0,0,1,167.861.137Zm.244-2.578h3.662v-1.4h-3.662Zm0-4.18v1.348h3.662V-6.621ZM188.291-16.5a11.2,11.2,0,0,1,2.275.566.336.336,0,0,1,.244.342.353.353,0,0,1-.137.293,1.485,1.485,0,0,0-.342.479q-.039.1-.127.293-.176.42-.342.791a32.336,32.336,0,0,0,3.643-.625.847.847,0,0,1,.117-.01q.156,0,.205.215a6.939,6.939,0,0,1,.205,1.436v.059q0,.215-.342.264-2.334.342-4.687.605A25.912,25.912,0,0,1,187.51-9.58l.02.039a3.616,3.616,0,0,1,2-.615A2.2,2.2,0,0,1,191.963-8q2.051-.947,2.949-1.406a5.919,5.919,0,0,0,1.514-1.074,11,11,0,0,1,1.406,1.758.839.839,0,0,1,.156.439q0,.225-.3.283a6.557,6.557,0,0,0-1.221.3q-2.939,1.035-4.3,1.592v3.223q0,.3-.381.361a9.612,9.612,0,0,1-1.416.1q-.264,0-.264-.322,0-1.719.02-2.432a6.147,6.147,0,0,0-1.943,1.4,1.928,1.928,0,0,0-.469,1.26q0,1.377,2.773,1.377a35.655,35.655,0,0,0,4.98-.4h.059q.2,0,.215.225a7.5,7.5,0,0,1,.186,1.641V.391q0,.3-.225.3a39.312,39.312,0,0,1-4.951.264q-5.02,0-5.02-3.3a3.878,3.878,0,0,1,1.113-2.725,11.536,11.536,0,0,1,3.105-2.148,1.927,1.927,0,0,0-.3-1.1.961.961,0,0,0-.781-.283h-.117a4.91,4.91,0,0,0-2.764,1.445q-.928.908-2,2.178-.146.176-.244.176-.078,0-.215-.137a8.6,8.6,0,0,1-1.143-1.318.335.335,0,0,1-.078-.186.29.29,0,0,1,.137-.215,20.62,20.62,0,0,0,4.189-4.961q-1.4.059-3.2.059-.225,0-.283-.322-.068-.381-.2-1.65.957.039,2.012.039,1.27,0,2.588-.068a16.419,16.419,0,0,0,.6-1.719A5.093,5.093,0,0,0,188.291-16.5ZM203.76-4.873l-2.5.039q-.2,0-.2-.215V-6.6q0-.215.2-.215l2.5.039h1.9v-3.9h-.7l-2.676.039q-.156,0-.2-.049a.394.394,0,0,1-.029-.2v-1.543q0-.2.225-.2l2.676.039h.7V-13.6a22.954,22.954,0,0,0-.137-2.832q1.445.039,2.158.117.3.029.3.215a2.362,2.362,0,0,1-.146.527,12.266,12.266,0,0,0-.078,1.973v1.025h4.219V-13.6a22.954,22.954,0,0,0-.137-2.832q1.416.029,2.158.117.3.029.3.215a2.565,2.565,0,0,1-.146.527,12.145,12.145,0,0,0-.078,1.973v1.025h.977l2.686-.039q.215,0,.215.2v1.543a.356.356,0,0,1-.039.215.336.336,0,0,1-.176.029l-2.686-.039h-.977v3.9h2.139l2.48-.039a.309.309,0,0,1,.2.039.336.336,0,0,1,.029.176v1.553a.294.294,0,0,1-.034.181.318.318,0,0,1-.19.034l-2.48-.039Zm4-1.9h4.219v-3.9h-4.219Zm10.957,6.4A5.713,5.713,0,0,0,217.705.9q-.283.479-.439.479a1.664,1.664,0,0,1-.439-.156,16.127,16.127,0,0,1-5.283-4.238.376.376,0,0,1-.078-.176q0-.078.215-.205l1.2-.7a.4.4,0,0,1,.2-.088.347.347,0,0,1,.205.127A13.944,13.944,0,0,0,218.721-.381ZM206.445-4.258a13.046,13.046,0,0,1,1.719.879q.264.146.264.3,0,.186-.3.352a3.687,3.687,0,0,0-.6.547A14.989,14.989,0,0,1,203.066,1.2a1.565,1.565,0,0,1-.459.156q-.156,0-.459-.439a4.582,4.582,0,0,0-1.064-1.2,12.859,12.859,0,0,0,4.541-2.832A4.484,4.484,0,0,0,206.445-4.258Zm14.414-1.66a14.957,14.957,0,0,0,5.615-6.2h-2.52l-2.539.039q-.156,0-.186-.039a.365.365,0,0,1-.029-.186v-1.533q0-.166.039-.2a.336.336,0,0,1,.176-.029l2.539.039h3.32q.127-.342.264-.859a10.331,10.331,0,0,0,.361-1.943,17.573,17.573,0,0,1,2.041.322q.381.107.381.283a.778.778,0,0,1-.225.381,2.894,2.894,0,0,0-.42.918l-.283.9H236.1l2.539-.039q.2,0,.2.225V-12.3q0,.225-.2.225l-2.539-.039h-7.461q-.3.674-.859,1.68h5.361l2.832-.039a.356.356,0,0,1,.215.039.365.365,0,0,1,.029.186L236.182-7.6v3.623l.039,3.1a2.131,2.131,0,0,1-.6,1.689,2.367,2.367,0,0,1-1.055.43,12.122,12.122,0,0,1-1.934.127,1.084,1.084,0,0,1-.576-.088,1.5,1.5,0,0,1-.176-.518,5.424,5.424,0,0,0-.547-1.436q.928.078,1.9.078a1.042,1.042,0,0,0,.693-.166A.717.717,0,0,0,234.1-1.3V-2.6H227.52v1.582l.039,2.295a.309.309,0,0,1-.039.2.336.336,0,0,1-.176.029h-1.68a.356.356,0,0,1-.215-.039.365.365,0,0,1-.029-.186l.039-2.295V-7.2a20.673,20.673,0,0,1-2.715,2.578.9.9,0,0,1-.449.244q-.137,0-.4-.381A5.008,5.008,0,0,0,220.859-5.918Zm6.66,1.68H234.1V-5.615H227.52ZM234.1-8.623H227.52v1.367H234.1Zm15.84-4.473q-.01-.293-.02-.918-.01-.469-.02-.742a8.392,8.392,0,0,0-.244-1.465,17.45,17.45,0,0,1,2.344.283q.557.1.557.381a1.051,1.051,0,0,1-.176.459,1.919,1.919,0,0,0-.166.576q-.01.127-.039,1.279,2.686-.1,6.143-.1.186,0,.234.059a.451.451,0,0,1,.059.244q.02.391.02.762t-.02.762q0,.264-.254.264h-.078q-1.816-.059-3.857-.059-1.23,0-2.246.01,0,2.5.02,3.721a5.694,5.694,0,0,1,.3,1.982A7.321,7.321,0,0,1,248.936.859a2.036,2.036,0,0,1-.781.381,1.121,1.121,0,0,1-.6-.3,4.237,4.237,0,0,0-1.523-.791,7.994,7.994,0,0,0,2.93-2.119,5.123,5.123,0,0,0,1.172-2.285,2.105,2.105,0,0,1-1.875.8,2.577,2.577,0,0,1-2.08-.918,3.209,3.209,0,0,1-.7-2.148,2.836,2.836,0,0,1,1.016-2.295,3.018,3.018,0,0,1,2-.7,2.309,2.309,0,0,1,1.523.4L250-11.162q-4.336.244-6.924.605a3.379,3.379,0,0,0-.6.146,1.476,1.476,0,0,1-.342.088.344.344,0,0,1-.342-.283,13.612,13.612,0,0,1-.5-2.012q.3.029.635.029.3,0,1.807-.107Q245.352-12.832,249.941-13.1Zm-1.279,5.137a1.323,1.323,0,0,0-.947.361,1.234,1.234,0,0,0-.381.938,1.364,1.364,0,0,0,.42,1.064,1.248,1.248,0,0,0,.859.3,1.354,1.354,0,0,0,1.016-.391,1.389,1.389,0,0,0,.352-1,1.211,1.211,0,0,0-.41-.986A1.348,1.348,0,0,0,248.662-7.959Zm21.963-5.3q-1.875.342-3.867.762a5.927,5.927,0,0,0-.84.244,1.137,1.137,0,0,1-.4.1.473.473,0,0,1-.439-.342,11.311,11.311,0,0,1-.693-2.158,8.134,8.134,0,0,0,1.084.068q.391,0,.771-.029,2.061-.205,4.541-.684a4.947,4.947,0,0,0,1.094-.3.981.981,0,0,1,.381-.156.8.8,0,0,1,.459.156,7.89,7.89,0,0,1,1.338,1.279.754.754,0,0,1,.225.488.507.507,0,0,1-.342.479,4.393,4.393,0,0,0-.879.635q-.615.605-2.275,2.275-1.24,1.24-2.041,2.012l.02.059a6.391,6.391,0,0,1,3.184-.9,4.887,4.887,0,0,1,3.75,1.494A4.684,4.684,0,0,1,276.9-4.473a4.81,4.81,0,0,1-2.139,4.18,8.273,8.273,0,0,1-4.844,1.3,4.8,4.8,0,0,1-3.105-.879,2.515,2.515,0,0,1-.937-2.061,2.205,2.205,0,0,1,.928-1.807,2.984,2.984,0,0,1,1.895-.635,3.774,3.774,0,0,1,2.52.84,3.883,3.883,0,0,1,1.24,2.08,3.559,3.559,0,0,0,1.611-1.289A3.318,3.318,0,0,0,274.5-4.5a2.856,2.856,0,0,0-.986-2.295,3.215,3.215,0,0,0-2.158-.723A7.854,7.854,0,0,0,266.24-5.4q-.381.352-1.738,1.7-.225.225-.342.225a.514.514,0,0,1-.3-.176,8.7,8.7,0,0,1-1.172-1.309.249.249,0,0,1-.068-.166.456.456,0,0,1,.166-.293,51.5,51.5,0,0,0,4.736-4.414Q269.561-11.943,270.625-13.262Zm-.146,12.3q-.4-1.719-1.7-1.719a1.02,1.02,0,0,0-.723.254.648.648,0,0,0-.234.508q0,1.035,1.738,1.035A4.828,4.828,0,0,0,270.479-.957ZM284.6-6.9q.771.391,1.543.8.156.088.156.2a.34.34,0,0,1-.059.166,2.792,2.792,0,0,0-.527,1.523q0,1.025,1.24,1.465a11.051,11.051,0,0,0,3.506.41,25.4,25.4,0,0,0,5.42-.576,1.024,1.024,0,0,1,.176-.02.234.234,0,0,1,.244.205,11.321,11.321,0,0,1,.322,1.953v.039q0,.205-.342.264A33.513,33.513,0,0,1,290.313,0a9.458,9.458,0,0,1-5.283-1.182,3.278,3.278,0,0,1-1.494-2.861A5.537,5.537,0,0,1,284.6-6.9Zm.439-7.559a25.068,25.068,0,0,0,5.615.518q1.377,0,4.238-.176h.059a.225.225,0,0,1,.244.225,13.446,13.446,0,0,1,.1,1.7q0,.391-.342.42a12.579,12.579,0,0,0-4.893,1.982.858.858,0,0,1-.508.176.874.874,0,0,1-.42-.117,4.742,4.742,0,0,0-1.4-.645q1.631-1.064,2.617-1.66a14.888,14.888,0,0,1-1.641.059,19.908,19.908,0,0,1-3.5-.342.324.324,0,0,1-.264-.361Q284.951-13,285.039-14.463Zm21.113-1.4a11.338,11.338,0,0,1,2.627.244q.361.088.361.313l-.146.84q0,.2.1,1.348a30.358,30.358,0,0,0,.645,3.438q.6-.322,1.465-.781l1.377-.742a5.092,5.092,0,0,0,1.377-1.074A9.978,9.978,0,0,1,315.42-10.4a.781.781,0,0,1,.137.42q0,.342-.4.4a9.592,9.592,0,0,0-1.924.605,28.8,28.8,0,0,0-4.7,2.334q-2.363,1.553-2.363,3.027A1.366,1.366,0,0,0,307-2.275a6.034,6.034,0,0,0,2.354.342,34.169,34.169,0,0,0,6.1-.469,1.068,1.068,0,0,1,.127-.01q.186,0,.234.254a17.4,17.4,0,0,1,.2,1.865q.029.3-.361.332a47,47,0,0,1-5.957.3q-5.781,0-5.781-3.838a4.541,4.541,0,0,1,1.162-3.027,11.556,11.556,0,0,1,2.637-2.139,28.8,28.8,0,0,1-1.035-4.873A9.539,9.539,0,0,0,306.152-15.859Zm15.527,3.105q1.064-.049,3.184-.342,7.939-1.162,12.012-1.7a.847.847,0,0,1,.117-.01q.273,0,.3.225a9.414,9.414,0,0,1,.225,1.758q0,.3-.381.3a10.01,10.01,0,0,0-2.441.439,8.106,8.106,0,0,0-3.984,2.7,5.179,5.179,0,0,0-1.113,3.2q0,3.867,5.322,4.2.439,0,.439.3a6.205,6.205,0,0,1-.225,1.719q-.078.42-.371.42a8.119,8.119,0,0,1-5.293-1.738,5.47,5.47,0,0,1-2.09-4.443,6.6,6.6,0,0,1,1.143-3.838,9.7,9.7,0,0,1,2.7-2.5V-12.1q-3.6.684-6.719,1.328-1.035.244-1.26.322a2.373,2.373,0,0,1-.439.156.411.411,0,0,1-.381-.3A15.226,15.226,0,0,1,321.68-12.754ZM334.121-9.2l1.055-.742a.223.223,0,0,1,.127-.049.313.313,0,0,1,.176.088,8.377,8.377,0,0,1,1.895,2.148.241.241,0,0,1,.059.137.219.219,0,0,1-.107.176l-.84.625a.3.3,0,0,1-.166.059q-.088,0-.176-.127A10.216,10.216,0,0,0,334.121-9.2Zm1.836-1.318,1.006-.713a.236.236,0,0,1,.127-.059.276.276,0,0,1,.166.088,7.74,7.74,0,0,1,1.9,2.061.35.35,0,0,1,.059.176.241.241,0,0,1-.117.186l-.8.625a.268.268,0,0,1-.156.068.239.239,0,0,1-.186-.127A9.635,9.635,0,0,0,335.957-10.518Z" transform="translate(593 429)"/>
    <path id="パス_7" data-name="パス 7" d="M19.1-.84A5.386,5.386,0,0,0,17.979.723q-.225.479-.361.479a1.323,1.323,0,0,1-.459-.244A15.617,15.617,0,0,1,10.1-8.6,14.687,14.687,0,0,1,2.861.977a1.569,1.569,0,0,1-.459.205q-.146,0-.4-.479A5.72,5.72,0,0,0,.84-.645,12.731,12.731,0,0,0,6.963-6.436a15.159,15.159,0,0,0,1.65-7.246q-.039-1.689-.137-2.6,1.162.059,2.461.244.381.049.381.313a1.041,1.041,0,0,1-.2.5,3.19,3.19,0,0,0-.166,1.328q-.02.234-.02.713a17.761,17.761,0,0,0,2.881,7.793A15.314,15.314,0,0,0,19.1-.84Zm7.051-15.02a11.338,11.338,0,0,1,2.627.244q.361.088.361.313l-.146.84q0,.2.1,1.348a30.358,30.358,0,0,0,.645,3.438q.6-.322,1.465-.781l1.377-.742a5.092,5.092,0,0,0,1.377-1.074A9.979,9.979,0,0,1,35.42-10.4a.781.781,0,0,1,.137.42q0,.342-.4.4a9.592,9.592,0,0,0-1.924.605,28.8,28.8,0,0,0-4.7,2.334q-2.363,1.553-2.363,3.027A1.366,1.366,0,0,0,27-2.275a6.034,6.034,0,0,0,2.354.342,34.169,34.169,0,0,0,6.1-.469,1.068,1.068,0,0,1,.127-.01q.186,0,.234.254a17.393,17.393,0,0,1,.2,1.865q.029.3-.361.332a47,47,0,0,1-5.957.3q-5.781,0-5.781-3.838a4.541,4.541,0,0,1,1.162-3.027,11.556,11.556,0,0,1,2.637-2.139,28.8,28.8,0,0,1-1.035-4.873A9.54,9.54,0,0,0,26.152-15.859ZM59.1-.84A5.386,5.386,0,0,0,57.979.723q-.225.479-.361.479a1.323,1.323,0,0,1-.459-.244A15.617,15.617,0,0,1,50.1-8.6,14.687,14.687,0,0,1,42.861.977a1.569,1.569,0,0,1-.459.205q-.146,0-.4-.479A5.72,5.72,0,0,0,40.84-.645a12.731,12.731,0,0,0,6.123-5.791,15.159,15.159,0,0,0,1.65-7.246q-.039-1.689-.137-2.6,1.162.059,2.461.244.381.049.381.313a1.041,1.041,0,0,1-.2.5,3.19,3.19,0,0,0-.166,1.328q-.02.234-.02.713a17.761,17.761,0,0,0,2.881,7.793A15.314,15.314,0,0,0,59.1-.84Zm7.051-15.02a11.338,11.338,0,0,1,2.627.244q.361.088.361.313l-.146.84q0,.2.1,1.348a30.358,30.358,0,0,0,.645,3.438q.6-.322,1.465-.781l1.377-.742a5.092,5.092,0,0,0,1.377-1.074A9.978,9.978,0,0,1,75.42-10.4a.781.781,0,0,1,.137.42q0,.342-.4.4a9.592,9.592,0,0,0-1.924.605,28.8,28.8,0,0,0-4.7,2.334q-2.363,1.553-2.363,3.027A1.366,1.366,0,0,0,67-2.275a6.034,6.034,0,0,0,2.354.342,34.169,34.169,0,0,0,6.1-.469,1.068,1.068,0,0,1,.127-.01q.186,0,.234.254a17.394,17.394,0,0,1,.2,1.865q.029.3-.361.332a47,47,0,0,1-5.957.3q-5.781,0-5.781-3.838a4.541,4.541,0,0,1,1.162-3.027,11.556,11.556,0,0,1,2.637-2.139,28.8,28.8,0,0,1-1.035-4.873A9.54,9.54,0,0,0,66.152-15.859Zm25.127,3.6a24.2,24.2,0,0,1-2.5,8.613,3.888,3.888,0,0,1-3.408,2.3,3.046,3.046,0,0,1-2.559-1.523,6.313,6.313,0,0,1-.977-3.613,7.171,7.171,0,0,1,2.256-5.205,8.811,8.811,0,0,1,6.5-2.559,7.664,7.664,0,0,1,5.859,2.227A6.613,6.613,0,0,1,98.213-7.3q0,5.43-6.162,7.285a1.136,1.136,0,0,1-.293.049q-.293,0-.566-.41a4.181,4.181,0,0,0-1.4-1.26A9.831,9.831,0,0,0,94.287-3.7,5.126,5.126,0,0,0,95.83-7.617,4.561,4.561,0,0,0,94.434-11a4.206,4.206,0,0,0-3.076-1.26Zm-2.324.117a6.147,6.147,0,0,0-3.418,1.816,5.513,5.513,0,0,0-1.562,3.7,4.317,4.317,0,0,0,.5,2.217q.391.645.859.645.82,0,1.5-1.221a17.152,17.152,0,0,0,1.338-3.437A25.14,25.14,0,0,0,88.955-12.139ZM101.26-9.9a22.059,22.059,0,0,0,3.877-1.035,25.742,25.742,0,0,1,7.207-1.66,6,6,0,0,1,4.482,1.66,5.01,5.01,0,0,1,1.4,3.643,5.842,5.842,0,0,1-.986,3.457,7.145,7.145,0,0,1-2.539,2.1,12.3,12.3,0,0,1-2.646,1.084q-.713.205-2.432.576a1.512,1.512,0,0,1-.293.039q-.273,0-.41-.361a3.485,3.485,0,0,0-1.4-1.582,20.734,20.734,0,0,0,5.42-1.475A4.342,4.342,0,0,0,115.7-7.441,2.8,2.8,0,0,0,114.7-9.766a3.807,3.807,0,0,0-2.432-.713q-2.549,0-7.227,2.061-1.26.625-1.377.713a1.006,1.006,0,0,1-.547.3q-.264,0-.576-.42A10.782,10.782,0,0,1,101.26-9.9Zm30.459,5.439q-.137-1.475-.176-3.437a7.766,7.766,0,0,0-.166-1.416,12.182,12.182,0,0,1,2.178.381.3.3,0,0,1,.283.313,2.277,2.277,0,0,1-.117.42,1.937,1.937,0,0,0-.088.6q0,.068.01.225a29.914,29.914,0,0,0,.215,3.4,17.713,17.713,0,0,1,3.6,1.865q.176.127.176.234a.453.453,0,0,1-.059.186,14.109,14.109,0,0,1-.918,1.621q-.088.137-.186.137a.32.32,0,0,1-.2-.117,16.2,16.2,0,0,0-2.441-1.68,2.575,2.575,0,0,1-1.133,2.3,4.691,4.691,0,0,1-2.578.615A4.127,4.127,0,0,1,127.334.3a2.467,2.467,0,0,1-.889-1.963,2.556,2.556,0,0,1,1.133-2.207,4.31,4.31,0,0,1,2.568-.713A10.328,10.328,0,0,1,131.719-4.463Zm.039,1.9a5.094,5.094,0,0,0-1.631-.3,2.331,2.331,0,0,0-1.328.332.965.965,0,0,0-.449.83q0,.957,1.7.957a1.864,1.864,0,0,0,1.328-.449,1.277,1.277,0,0,0,.4-.967A2.793,2.793,0,0,0,131.758-2.559Zm-3.252-10.264a20.372,20.372,0,0,0,2.48-.43.444.444,0,0,1,.146-.039q.117,0,.146.2a9.251,9.251,0,0,1,.186,1.621q0,.205-.244.234-1.035.215-3.3.537a57.3,57.3,0,0,1-3.9,8.584q-.117.2-.225.2a.582.582,0,0,1-.234-.1,8.157,8.157,0,0,1-1.387-1.025.29.29,0,0,1-.137-.215.405.405,0,0,1,.1-.244,42.742,42.742,0,0,0,3.467-6.973q-.762.039-2,.039-.605,0-1.1-.02-.225,0-.283-.322a11.312,11.312,0,0,1-.2-1.7q1.084.078,1.855.078,1.162,0,2.3-.1.264-.928.518-2.236a9.2,9.2,0,0,0,.127-1.621,18.087,18.087,0,0,1,2.334.42q.322.059.322.293a.532.532,0,0,1-.176.381,2.552,2.552,0,0,0-.322.742q-.049.166-.244.869Q128.6-13.145,128.506-12.822Zm4.434,1.9q.82-1.455.9-1.562.117-.186.244-.186a.541.541,0,0,1,.176.039,14.043,14.043,0,0,1,3.926,1.885q.176.117.176.215a.505.505,0,0,1-.078.244,11.223,11.223,0,0,1-.84,1.484q-.088.137-.186.137a.33.33,0,0,1-.176-.078A17.118,17.118,0,0,0,132.939-10.918Zm21.475-3.5,1.064-.742a.184.184,0,0,1,.117-.049.28.28,0,0,1,.176.088,8.584,8.584,0,0,1,1.9,2.139.249.249,0,0,1,.059.146.236.236,0,0,1-.117.176l-.84.615a.268.268,0,0,1-.156.068.239.239,0,0,1-.186-.127A9.907,9.907,0,0,0,154.414-14.414Zm1.846-1.328,1-.723a.261.261,0,0,1,.127-.049.313.313,0,0,1,.176.088,7.951,7.951,0,0,1,1.895,2.07.292.292,0,0,1,.059.156.247.247,0,0,1-.117.2l-.8.625a.268.268,0,0,1-.156.068.239.239,0,0,1-.186-.127A9.744,9.744,0,0,0,156.26-15.742Zm-9.844,4.561q.3-1.084.6-2.52a13.24,13.24,0,0,0,.205-2.217,17.932,17.932,0,0,1,2.393.654.4.4,0,0,1,.322.4.42.42,0,0,1-.137.3,2.63,2.63,0,0,0-.4.762q-.146.449-.381,1.27-.225.752-.342,1.133a13.494,13.494,0,0,1,1.6-.088q2.861,0,2.861,3.857A20.7,20.7,0,0,1,152.813-4a10.427,10.427,0,0,1-.762,2.646,2.817,2.817,0,0,1-2.7,1.875,5.32,5.32,0,0,1-2.08-.3.549.549,0,0,1-.361-.557,6.542,6.542,0,0,0-.381-1.855,5.408,5.408,0,0,0,2.3.518,1.174,1.174,0,0,0,.811-.254,2.3,2.3,0,0,0,.469-.811,14.133,14.133,0,0,0,.781-4.98,2.793,2.793,0,0,0-.273-1.494,1.014,1.014,0,0,0-.869-.342,13.041,13.041,0,0,0-1.68.137,58.762,58.762,0,0,1-4.023,9.4q-.107.244-.293.244a.487.487,0,0,1-.225-.068,5.691,5.691,0,0,1-1.387-.879.437.437,0,0,1-.156-.293.376.376,0,0,1,.078-.225,45.622,45.622,0,0,0,3.662-7.842q-.684.107-1.953.342a6.971,6.971,0,0,0-1.1.322.737.737,0,0,1-.244.049.413.413,0,0,1-.4-.312,19.264,19.264,0,0,1-.615-2.061q1.1,0,2.637-.137Q145.137-10.986,146.416-11.182Zm6.9-.156q1.123-.762,1.611-1.025a.315.315,0,0,1,.137-.039.377.377,0,0,1,.244.137,13.04,13.04,0,0,1,3.32,4.863.451.451,0,0,1,.049.176.3.3,0,0,1-.127.225,6.406,6.406,0,0,1-1.5,1,.429.429,0,0,1-.205.059.25.25,0,0,1-.254-.215A13.573,13.573,0,0,0,153.32-11.338ZM165.527-16a10.509,10.509,0,0,1,2.178.615q.381.146.381.4a.514.514,0,0,1-.137.322,2.515,2.515,0,0,0-.361.938q-.273,1.318-.557,3.818-.078,1.318-.078,1.7,0,.264.01.508.723-1.289,1.4-2.568a4.535,4.535,0,0,0,.625,1.3.5.5,0,0,1,.117.322.956.956,0,0,1-.2.5,18.627,18.627,0,0,0-1.182,2.559,2.941,2.941,0,0,0-.107.605.293.293,0,0,1-.254.313,15.036,15.036,0,0,1-1.6.244q-.2.029-.283-.264a11.81,11.81,0,0,1-.6-4.053,47.787,47.787,0,0,1,.479-4.98A20.091,20.091,0,0,0,165.527-16Zm6.4.039a13.194,13.194,0,0,1,2.285.234q.41.107.41.371,0,.068-.01.176a5.934,5.934,0,0,0-.049.918q.283,3.779.283,5.156,0,4.59-1.523,6.943a10.293,10.293,0,0,1-3.3,3.223.691.691,0,0,1-.4.137.628.628,0,0,1-.42-.225,4.327,4.327,0,0,0-1.7-.918,10.912,10.912,0,0,0,3.408-2.676,7.973,7.973,0,0,0,1.328-2.8A15.222,15.222,0,0,0,172.588-9a43.391,43.391,0,0,0-.244-4.775A10.961,10.961,0,0,0,171.924-15.957Zm22.49,1.543,1.064-.742a.184.184,0,0,1,.117-.049.28.28,0,0,1,.176.088,8.584,8.584,0,0,1,1.9,2.139.249.249,0,0,1,.059.146.236.236,0,0,1-.117.176l-.84.615a.268.268,0,0,1-.156.068.239.239,0,0,1-.186-.127A9.907,9.907,0,0,0,194.414-14.414Zm1.846-1.328,1-.723a.261.261,0,0,1,.127-.049.313.313,0,0,1,.176.088,7.951,7.951,0,0,1,1.895,2.07.292.292,0,0,1,.059.156.247.247,0,0,1-.117.2l-.8.625a.268.268,0,0,1-.156.068.239.239,0,0,1-.186-.127A9.744,9.744,0,0,0,196.26-15.742Zm-9.844,4.561q.3-1.084.6-2.52a13.24,13.24,0,0,0,.205-2.217,17.932,17.932,0,0,1,2.393.654.4.4,0,0,1,.322.4.42.42,0,0,1-.137.3,2.63,2.63,0,0,0-.4.762q-.146.449-.381,1.27-.225.752-.342,1.133a13.494,13.494,0,0,1,1.6-.088q2.861,0,2.861,3.857A20.7,20.7,0,0,1,192.813-4a10.427,10.427,0,0,1-.762,2.646,2.817,2.817,0,0,1-2.7,1.875,5.32,5.32,0,0,1-2.08-.3.549.549,0,0,1-.361-.557,6.542,6.542,0,0,0-.381-1.855,5.408,5.408,0,0,0,2.3.518,1.174,1.174,0,0,0,.811-.254,2.3,2.3,0,0,0,.469-.811,14.133,14.133,0,0,0,.781-4.98,2.793,2.793,0,0,0-.273-1.494,1.014,1.014,0,0,0-.869-.342,13.041,13.041,0,0,0-1.68.137,58.762,58.762,0,0,1-4.023,9.4q-.107.244-.293.244a.487.487,0,0,1-.225-.068,5.691,5.691,0,0,1-1.387-.879.437.437,0,0,1-.156-.293.376.376,0,0,1,.078-.225,45.622,45.622,0,0,0,3.662-7.842q-.684.107-1.953.342a6.971,6.971,0,0,0-1.1.322.737.737,0,0,1-.244.049.413.413,0,0,1-.4-.312,19.264,19.264,0,0,1-.615-2.061q1.1,0,2.637-.137Q185.137-10.986,186.416-11.182Zm6.9-.156q1.123-.762,1.611-1.025a.315.315,0,0,1,.137-.039.377.377,0,0,1,.244.137,13.04,13.04,0,0,1,3.32,4.863.451.451,0,0,1,.049.176.3.3,0,0,1-.127.225,6.406,6.406,0,0,1-1.5,1,.429.429,0,0,1-.205.059.25.25,0,0,1-.254-.215A13.573,13.573,0,0,0,193.32-11.338Zm11.582-1v2.422a33.741,33.741,0,0,1-.557,6.416,14.391,14.391,0,0,1-1.6,4.424q-.205.381-.322.381t-.4-.322a6.292,6.292,0,0,0-1.338-1.123,11.7,11.7,0,0,0,1.641-4.18,30.237,30.237,0,0,0,.459-5.977l-.039-3.76q0-.166.039-.2a.336.336,0,0,1,.176-.029l2.725.039h3.975V-15.1a8.611,8.611,0,0,0-.117-1.621q1.045.029,2.119.117.322.039.322.205a.817.817,0,0,1-.117.381,1.8,1.8,0,0,0-.146.859v.918h4.063l2.686-.039q.2,0,.2.225v1.514a.356.356,0,0,1-.039.215.255.255,0,0,1-.156.029l-2.686-.039Zm9.7,5.693a45.161,45.161,0,0,1,3.848,6.68.53.53,0,0,1,.039.166q0,.127-.225.234l-1.475.781a.524.524,0,0,1-.205.059q-.137,0-.215-.205-.527-1.191-.8-1.787-4.629.82-9.326,1.338a1.738,1.738,0,0,0-.732.225.631.631,0,0,1-.322.117q-.2,0-.3-.3-.215-.742-.479-2.08.42.02.781.02.723,0,1.494-.059a60.105,60.105,0,0,0,2.5-7.92,9.889,9.889,0,0,0,.264-1.865,19.162,19.162,0,0,1,2.217.605q.342.1.342.342a.652.652,0,0,1-.176.4,2.866,2.866,0,0,0-.508,1.113,64.717,64.717,0,0,1-2.373,7.1q3.428-.381,5.742-.8a34.026,34.026,0,0,0-1.963-3.213.292.292,0,0,1-.059-.156q0-.1.215-.205l1.3-.625a.954.954,0,0,1,.264-.088Q214.512-6.768,214.6-6.641Zm19.814-7.773,1.064-.742a.184.184,0,0,1,.117-.049.28.28,0,0,1,.176.088,8.584,8.584,0,0,1,1.9,2.139.249.249,0,0,1,.059.146.236.236,0,0,1-.117.176l-.84.615a.268.268,0,0,1-.156.068.239.239,0,0,1-.186-.127A9.907,9.907,0,0,0,234.414-14.414Zm1.846-1.328,1-.723a.261.261,0,0,1,.127-.049.313.313,0,0,1,.176.088,7.951,7.951,0,0,1,1.895,2.07.292.292,0,0,1,.059.156.247.247,0,0,1-.117.2l-.8.625a.268.268,0,0,1-.156.068.239.239,0,0,1-.186-.127A9.744,9.744,0,0,0,236.26-15.742Zm-9.844,4.561q.3-1.084.6-2.52a13.24,13.24,0,0,0,.205-2.217,17.932,17.932,0,0,1,2.393.654.4.4,0,0,1,.322.4.42.42,0,0,1-.137.3,2.63,2.63,0,0,0-.4.762q-.146.449-.381,1.27-.225.752-.342,1.133a13.494,13.494,0,0,1,1.6-.088q2.861,0,2.861,3.857A20.7,20.7,0,0,1,232.813-4a10.427,10.427,0,0,1-.762,2.646,2.817,2.817,0,0,1-2.7,1.875,5.32,5.32,0,0,1-2.08-.3.549.549,0,0,1-.361-.557,6.542,6.542,0,0,0-.381-1.855,5.408,5.408,0,0,0,2.3.518,1.174,1.174,0,0,0,.811-.254,2.3,2.3,0,0,0,.469-.811,14.133,14.133,0,0,0,.781-4.98,2.793,2.793,0,0,0-.273-1.494,1.014,1.014,0,0,0-.869-.342,13.041,13.041,0,0,0-1.68.137,58.762,58.762,0,0,1-4.023,9.4q-.107.244-.293.244a.487.487,0,0,1-.225-.068,5.691,5.691,0,0,1-1.387-.879.437.437,0,0,1-.156-.293.376.376,0,0,1,.078-.225,45.622,45.622,0,0,0,3.662-7.842q-.684.107-1.953.342a6.971,6.971,0,0,0-1.1.322.737.737,0,0,1-.244.049.413.413,0,0,1-.4-.312,19.264,19.264,0,0,1-.615-2.061q1.1,0,2.637-.137Q225.137-10.986,226.416-11.182Zm6.9-.156q1.123-.762,1.611-1.025a.315.315,0,0,1,.137-.039.377.377,0,0,1,.244.137,13.04,13.04,0,0,1,3.32,4.863.451.451,0,0,1,.049.176.3.3,0,0,1-.127.225,6.406,6.406,0,0,1-1.5,1,.429.429,0,0,1-.205.059.25.25,0,0,1-.254-.215A13.573,13.573,0,0,0,233.32-11.338Zm9.756,3.555a21.305,21.305,0,0,0,3.115-.771,19.758,19.758,0,0,1,5.84-1.221,4.523,4.523,0,0,1,3.457,1.357,4.094,4.094,0,0,1,1.1,2.92,4.848,4.848,0,0,1-2.861,4.482A10.821,10.821,0,0,1,249.6.3a1.268,1.268,0,0,1-.205.02.508.508,0,0,1-.459-.3A4.384,4.384,0,0,0,247.715-1.3a23.393,23.393,0,0,0,2.715-.557,13,13,0,0,0,2.109-.82,3.145,3.145,0,0,0,1.8-2.979q0-2.2-2.48-2.2A17.518,17.518,0,0,0,246.191-6.3a6.166,6.166,0,0,0-1.113.625.682.682,0,0,1-.4.2q-.225,0-.518-.361A12.059,12.059,0,0,1,243.076-7.783Zm18.809-4.98q1.064-.039,3.184-.332,8.076-1.182,12.012-1.7a.847.847,0,0,1,.117-.01q.273,0,.3.225a9.447,9.447,0,0,1,.225,1.768q0,.293-.381.293a10.01,10.01,0,0,0-2.441.439,8.106,8.106,0,0,0-3.984,2.7,5.179,5.179,0,0,0-1.113,3.2q0,3.867,5.322,4.2.439,0,.439.3a6.205,6.205,0,0,1-.225,1.719q-.078.42-.371.42a8.144,8.144,0,0,1-5.293-1.738,5.47,5.47,0,0,1-2.09-4.443A6.649,6.649,0,0,1,268.73-9.57a9.581,9.581,0,0,1,2.7-2.49V-12.1q-3.535.664-6.719,1.318-1.035.244-1.26.322a2.071,2.071,0,0,1-.439.156.411.411,0,0,1-.381-.3A14.642,14.642,0,0,1,261.885-12.764ZM282.344-13.9a7.831,7.831,0,0,1,2.539.654q.322.146.322.361a1.618,1.618,0,0,1-.166.557,7.365,7.365,0,0,0-.176,1.963,26.6,26.6,0,0,0,.361,4.561q.518,2.939,1.641,2.939.508,0,.967-.7a11.1,11.1,0,0,0,.947-2.08A8.379,8.379,0,0,0,290.059-4.1a.565.565,0,0,1,.205.43,1,1,0,0,1-.059.313,5.648,5.648,0,0,1-1.582,2.422,2.773,2.773,0,0,1-1.816.693,2.971,2.971,0,0,1-2.393-1.523,8.886,8.886,0,0,1-1.348-3.691,35.111,35.111,0,0,1-.479-5.82A12.256,12.256,0,0,0,282.344-13.9Zm10.244,2.832q.986-.625,1.572-.918a.688.688,0,0,1,.225-.078.325.325,0,0,1,.215.117,11.834,11.834,0,0,1,2.588,3.32A12.168,12.168,0,0,1,298.516-5.1a.437.437,0,0,1,.02.117q0,.176-.234.322a7.43,7.43,0,0,1-1.562.8.618.618,0,0,1-.176.029q-.2,0-.244-.254a16,16,0,0,0-1.475-4.023A13.47,13.47,0,0,0,292.588-11.064Zm18.994-5.176a15.5,15.5,0,0,1,2.207,1.523.388.388,0,0,1,.156.313.4.4,0,0,1-.283.381,4.369,4.369,0,0,0-.957.7q-3.291,2.949-5.459,5.2a1.007,1.007,0,0,0-.264.439q0,.156.264.361a54.882,54.882,0,0,1,7.441,6.3.526.526,0,0,1,.137.264.374.374,0,0,1-.137.234q-.8.869-1.387,1.387a.543.543,0,0,1-.273.156q-.088,0-.244-.176a52,52,0,0,0-7.275-6.758,2.214,2.214,0,0,1-1.064-1.689,1.677,1.677,0,0,1,.293-.928,6.514,6.514,0,0,1,.684-.83q.771-.82,2.705-2.852,1.494-1.553,2.383-2.52A6.155,6.155,0,0,0,311.582-16.24ZM330.615.84,327.93.879q-.156,0-.186-.039a.336.336,0,0,1-.029-.176V-.918a.318.318,0,0,1,.034-.19.294.294,0,0,1,.181-.034l2.686.039h1.68V-8.574h-.9l-2.52.02a.305.305,0,0,1-.176-.029.305.305,0,0,1-.029-.176v-1.582q0-.146.039-.176a.4.4,0,0,1,.166-.02l2.52.02h.9V-13.7a22.018,22.018,0,0,0-.156-3.018q1.289.039,2.217.137.322.039.322.205a.967.967,0,0,1-.1.42,7.594,7.594,0,0,0-.166,2.2v3.242h1.26l2.52-.02a.36.36,0,0,1,.2.029.279.279,0,0,1,.029.166V-8.76q0,.156-.049.186a.438.438,0,0,1-.176.02l-2.52-.02h-1.26V-1.1h1.816l2.666-.039a.332.332,0,0,1,.205.039.365.365,0,0,1,.029.186V.664q0,.156-.039.186a.394.394,0,0,1-.2.029L336.23.84ZM320.6-5.723a14.091,14.091,0,0,0,3.291-2.861,12.543,12.543,0,0,0,1.934-3.057h-2.266l-2.119.039a.309.309,0,0,1-.2-.039.336.336,0,0,1-.029-.176V-13.3q0-.156.049-.2a.305.305,0,0,1,.176-.029l2.119.049h.381v-.82a14.311,14.311,0,0,0-.156-2.441q1.074.029,2.08.137.322.029.322.205a1.252,1.252,0,0,1-.117.42,5.229,5.229,0,0,0-.127,1.592v.908h.84a.7.7,0,0,0,.381-.088.6.6,0,0,1,.225-.078q.2,0,.742.518.537.537.537.723a.428.428,0,0,1-.2.322A2.524,2.524,0,0,0,328-11.5a20.065,20.065,0,0,1-1.7,2.92,11.794,11.794,0,0,0,2.939,2.344,4.65,4.65,0,0,0-.8,1.3q-.205.439-.381.439a.791.791,0,0,1-.4-.244A14.719,14.719,0,0,1,325.938-6.6V-.977l.039,2.354a.309.309,0,0,1-.039.2.462.462,0,0,1-.205.029h-1.6a.332.332,0,0,1-.205-.039.365.365,0,0,1-.029-.186l.039-2.354V-5.762a19.873,19.873,0,0,1-1.9,1.66,1.068,1.068,0,0,1-.42.264q-.127,0-.312-.459A5.556,5.556,0,0,0,320.6-5.723Zm24.15.742-2.646.039a.332.332,0,0,1-.205-.039.336.336,0,0,1-.029-.176v-1.5q0-.156.039-.186a.394.394,0,0,1,.2-.029l2.646.039H355.4l2.646-.039a.332.332,0,0,1,.205.039.336.336,0,0,1,.029.176v1.5a.293.293,0,0,1-.034.181.343.343,0,0,1-.2.034L355.4-4.98h-6.172a38.116,38.116,0,0,1-1.787,3.76q3.125-.176,6.162-.5-.918-1.123-1.455-1.7a.276.276,0,0,1-.088-.166q0-.1.205-.2l1.279-.664a.481.481,0,0,1,.215-.078.321.321,0,0,1,.205.117A36.883,36.883,0,0,1,357.686.244a.31.31,0,0,1,.068.166q0,.1-.166.205l-1.387.908a.6.6,0,0,1-.234.117q-.078,0-.166-.137-.4-.674-1-1.562Q350.928.43,344,.957a1.626,1.626,0,0,0-.723.186.531.531,0,0,1-.342.117q-.215,0-.273-.283a20.947,20.947,0,0,1-.42-2.061q.459.039.967.039.488,0,1.211-.039l.645-.02a33.623,33.623,0,0,0,1.758-3.877Zm14.795-5.1a6.275,6.275,0,0,0-.859,1.494q-.2.5-.342.5a1.565,1.565,0,0,1-.459-.156,22.56,22.56,0,0,1-3.818-2.119v1.484q0,.156-.039.186a.336.336,0,0,1-.176.029L351.582-8.7h-3.076l-2.266.039q-.156,0-.186-.039a.336.336,0,0,1-.029-.176V-10.4A23.155,23.155,0,0,1,342.4-8.242a1.439,1.439,0,0,1-.479.186q-.137,0-.361-.5a4.657,4.657,0,0,0-.9-1.328,16.219,16.219,0,0,0,7.676-5.811,6.242,6.242,0,0,0,.7-1.3,15.119,15.119,0,0,1,2.158.42q.361.088.361.273a.334.334,0,0,1-.2.322,1.611,1.611,0,0,0-.283.176A18.543,18.543,0,0,0,359.541-10.078ZM346.309-10.6q.352.039,2.2.039h3.076q1.719,0,2.158-.039a18.326,18.326,0,0,1-3.779-3.662A18.539,18.539,0,0,1,346.309-10.6Z" transform="translate(665 488)"/>
    <path id="パス_8" data-name="パス 8" d="M4.521-15.2q.664.049,1.279.049.361,0,.7-.02,1.016-.078,4.561-.6a3.2,3.2,0,0,0,1.064-.342.666.666,0,0,1,.381-.137,1.056,1.056,0,0,1,.537.3,5.916,5.916,0,0,1,.977,1,.919.919,0,0,1,.244.557q0,.283-.361.469a4.45,4.45,0,0,0-.82.6Q9.492-10.146,7.021-8.281l.039.059a84.768,84.768,0,0,1,9.639-2.2.587.587,0,0,1,.088-.01q.234,0,.293.322A8.473,8.473,0,0,1,17.3-8.477v.039q0,.205-.322.234a15.7,15.7,0,0,0-3.721.645A5.789,5.789,0,0,0,10.576-5.84,3.016,3.016,0,0,0,9.844-3.9q0,2.5,5,2.5a.268.268,0,0,1,.3.3q0,.02,0,.059-.02.234-.264,1.68-.059.439-.439.439A12.986,12.986,0,0,1,13.125.967,6.86,6.86,0,0,1,8.848-.693,3.855,3.855,0,0,1,7.725-3.555a4.087,4.087,0,0,1,.693-2.207,4.808,4.808,0,0,1,1.748-1.66v-.039q-2.441.645-6.582,2.1a3.738,3.738,0,0,1-.576.225q-.254,0-.4-.4a14.285,14.285,0,0,1-.664-1.641q.439-.117,1.035-.322A9.606,9.606,0,0,0,4.9-8.682a68.84,68.84,0,0,0,5.7-5.234q-1.143.312-3.564.771-.654.137-.762.166-.059.02-.186.078a1.034,1.034,0,0,1-.371.117q-.244,0-.479-.439A10.625,10.625,0,0,1,4.521-15.2Zm24.043-.742A11.912,11.912,0,0,1,30.8-14.824a.534.534,0,0,1,.283.42.591.591,0,0,1-.225.4,5.484,5.484,0,0,0-.615.859Q27.8-8.457,26.777-6.777l.02.039a3.861,3.861,0,0,1,2.441-1.025,2.4,2.4,0,0,1,2.275,1.318,7.01,7.01,0,0,1,.645,2.461,4.8,4.8,0,0,0,.391,1.67.844.844,0,0,0,.771.449,2.6,2.6,0,0,0,1.885-.957,9.385,9.385,0,0,0,2.012-3.262,5.528,5.528,0,0,0,1.162,1.66A.558.558,0,0,1,38.6-4a.753.753,0,0,1-.078.342,10.393,10.393,0,0,1-1.719,2.48A4.872,4.872,0,0,1,33.125.5,2.666,2.666,0,0,1,30.791-.518a6.123,6.123,0,0,1-.811-2.871A5.117,5.117,0,0,0,29.473-5.5a.91.91,0,0,0-.811-.469,3.425,3.425,0,0,0-2.52,1.7A22.27,22.27,0,0,0,23.8.186q-.117.273-.283.273a.643.643,0,0,1-.2-.039,6.378,6.378,0,0,1-1.543-.859A.321.321,0,0,1,21.6-.693a.587.587,0,0,1,.1-.283q4.082-7.988,5.859-12.041A13.9,13.9,0,0,0,28.564-15.937ZM51.719-4.463q-.137-1.475-.176-3.437a7.765,7.765,0,0,0-.166-1.416,12.182,12.182,0,0,1,2.178.381.3.3,0,0,1,.283.313,2.277,2.277,0,0,1-.117.42,1.937,1.937,0,0,0-.088.6q0,.068.01.225a29.915,29.915,0,0,0,.215,3.4,17.713,17.713,0,0,1,3.6,1.865q.176.127.176.234a.453.453,0,0,1-.059.186A14.108,14.108,0,0,1,56.66-.078q-.088.137-.186.137a.32.32,0,0,1-.2-.117,16.2,16.2,0,0,0-2.441-1.68,2.575,2.575,0,0,1-1.133,2.3,4.691,4.691,0,0,1-2.578.615A4.127,4.127,0,0,1,47.334.3a2.467,2.467,0,0,1-.889-1.963,2.556,2.556,0,0,1,1.133-2.207,4.31,4.31,0,0,1,2.568-.713A10.328,10.328,0,0,1,51.719-4.463Zm.039,1.9a5.094,5.094,0,0,0-1.631-.3,2.331,2.331,0,0,0-1.328.332.965.965,0,0,0-.449.83q0,.957,1.7.957a1.864,1.864,0,0,0,1.328-.449,1.277,1.277,0,0,0,.4-.967A2.792,2.792,0,0,0,51.758-2.559ZM48.506-12.822a20.372,20.372,0,0,0,2.48-.43.444.444,0,0,1,.146-.039q.117,0,.146.2a9.252,9.252,0,0,1,.186,1.621q0,.205-.244.234-1.035.215-3.3.537a57.3,57.3,0,0,1-3.9,8.584q-.117.2-.225.2a.582.582,0,0,1-.234-.1,8.157,8.157,0,0,1-1.387-1.025.29.29,0,0,1-.137-.215.405.405,0,0,1,.1-.244,42.742,42.742,0,0,0,3.467-6.973q-.762.039-2,.039-.605,0-1.1-.02-.225,0-.283-.322a11.312,11.312,0,0,1-.2-1.7q1.084.078,1.855.078,1.162,0,2.3-.1.264-.928.518-2.236a9.2,9.2,0,0,0,.127-1.621,18.088,18.088,0,0,1,2.334.42q.322.059.322.293a.532.532,0,0,1-.176.381,2.552,2.552,0,0,0-.322.742q-.049.166-.244.869Q48.6-13.145,48.506-12.822Zm4.434,1.9q.82-1.455.9-1.562.117-.186.244-.186a.541.541,0,0,1,.176.039,14.043,14.043,0,0,1,3.926,1.885q.176.117.176.215a.505.505,0,0,1-.078.244,11.224,11.224,0,0,1-.84,1.484q-.088.137-.186.137a.33.33,0,0,1-.176-.078A17.119,17.119,0,0,0,52.939-10.918ZM70.615.84,67.93.879q-.156,0-.186-.039a.336.336,0,0,1-.029-.176V-.918a.318.318,0,0,1,.034-.19.294.294,0,0,1,.181-.034l2.686.039h1.68V-8.574h-.9l-2.52.02a.305.305,0,0,1-.176-.029.305.305,0,0,1-.029-.176v-1.582q0-.146.039-.176a.4.4,0,0,1,.166-.02l2.52.02h.9V-13.7a22.017,22.017,0,0,0-.156-3.018q1.289.039,2.217.137.322.039.322.205a.967.967,0,0,1-.1.42,7.594,7.594,0,0,0-.166,2.2v3.242h1.26l2.52-.02a.36.36,0,0,1,.2.029.279.279,0,0,1,.029.166V-8.76q0,.156-.049.186a.438.438,0,0,1-.176.02l-2.52-.02h-1.26V-1.1H76.23L78.9-1.143A.332.332,0,0,1,79.1-1.1a.365.365,0,0,1,.029.186V.664q0,.156-.039.186a.394.394,0,0,1-.2.029L76.23.84ZM60.6-5.723a14.091,14.091,0,0,0,3.291-2.861,12.543,12.543,0,0,0,1.934-3.057H63.555l-2.119.039a.309.309,0,0,1-.2-.039.336.336,0,0,1-.029-.176V-13.3q0-.156.049-.2a.305.305,0,0,1,.176-.029l2.119.049h.381v-.82a14.31,14.31,0,0,0-.156-2.441q1.074.029,2.08.137.322.029.322.205a1.252,1.252,0,0,1-.117.42,5.229,5.229,0,0,0-.127,1.592v.908h.84a.7.7,0,0,0,.381-.088.6.6,0,0,1,.225-.078q.2,0,.742.518.537.537.537.723a.428.428,0,0,1-.2.322A2.524,2.524,0,0,0,68-11.5a20.064,20.064,0,0,1-1.7,2.92A11.794,11.794,0,0,0,69.238-6.24a4.65,4.65,0,0,0-.8,1.3q-.205.439-.381.439a.791.791,0,0,1-.4-.244A14.718,14.718,0,0,1,65.938-6.6V-.977l.039,2.354a.309.309,0,0,1-.039.2.462.462,0,0,1-.205.029h-1.6a.332.332,0,0,1-.205-.039.365.365,0,0,1-.029-.186l.039-2.354V-5.762a19.873,19.873,0,0,1-1.9,1.66,1.068,1.068,0,0,1-.42.264q-.127,0-.312-.459A5.555,5.555,0,0,0,60.6-5.723Zm24.15.742L82.1-4.941a.332.332,0,0,1-.205-.039.336.336,0,0,1-.029-.176v-1.5q0-.156.039-.186a.394.394,0,0,1,.2-.029l2.646.039H95.4l2.646-.039a.332.332,0,0,1,.205.039.336.336,0,0,1,.029.176v1.5a.294.294,0,0,1-.034.181.343.343,0,0,1-.2.034L95.4-4.98H89.229a38.119,38.119,0,0,1-1.787,3.76q3.125-.176,6.162-.5-.918-1.123-1.455-1.7a.276.276,0,0,1-.088-.166q0-.1.205-.2l1.279-.664a.481.481,0,0,1,.215-.078.321.321,0,0,1,.205.117A36.884,36.884,0,0,1,97.686.244a.31.31,0,0,1,.068.166q0,.1-.166.205L96.2,1.523a.6.6,0,0,1-.234.117q-.078,0-.166-.137-.4-.674-1-1.562Q90.928.43,84,.957a1.626,1.626,0,0,0-.723.186.531.531,0,0,1-.342.117q-.215,0-.273-.283a20.945,20.945,0,0,1-.42-2.061q.459.039.967.039.488,0,1.211-.039l.645-.02A33.62,33.62,0,0,0,86.826-4.98Zm14.795-5.1a6.274,6.274,0,0,0-.859,1.494q-.2.5-.342.5a1.565,1.565,0,0,1-.459-.156,22.559,22.559,0,0,1-3.818-2.119v1.484q0,.156-.039.186a.336.336,0,0,1-.176.029L91.582-8.7H88.506l-2.266.039q-.156,0-.186-.039a.336.336,0,0,1-.029-.176V-10.4A23.155,23.155,0,0,1,82.4-8.242a1.439,1.439,0,0,1-.479.186q-.137,0-.361-.5a4.657,4.657,0,0,0-.9-1.328,16.219,16.219,0,0,0,7.676-5.811,6.243,6.243,0,0,0,.7-1.3,15.12,15.12,0,0,1,2.158.42q.361.088.361.273a.334.334,0,0,1-.2.322,1.611,1.611,0,0,0-.283.176A18.543,18.543,0,0,0,99.541-10.078ZM86.309-10.6q.352.039,2.2.039h3.076q1.719,0,2.158-.039a18.327,18.327,0,0,1-3.779-3.662A18.539,18.539,0,0,1,86.309-10.6ZM108.291-16.5a11.2,11.2,0,0,1,2.275.566.336.336,0,0,1,.244.342.353.353,0,0,1-.137.293,1.485,1.485,0,0,0-.342.479q-.039.1-.127.293-.176.42-.342.791a32.336,32.336,0,0,0,3.643-.625.847.847,0,0,1,.117-.01q.156,0,.205.215a6.939,6.939,0,0,1,.205,1.436v.059q0,.215-.342.264-2.334.342-4.687.605A25.915,25.915,0,0,1,107.51-9.58l.02.039a3.616,3.616,0,0,1,2-.615A2.2,2.2,0,0,1,111.963-8q2.051-.947,2.949-1.406a5.919,5.919,0,0,0,1.514-1.074,11,11,0,0,1,1.406,1.758.839.839,0,0,1,.156.439q0,.225-.3.283a6.557,6.557,0,0,0-1.221.3q-2.939,1.035-4.3,1.592v3.223q0,.3-.381.361a9.611,9.611,0,0,1-1.416.1q-.264,0-.264-.322,0-1.719.02-2.432a6.147,6.147,0,0,0-1.943,1.4,1.928,1.928,0,0,0-.469,1.26q0,1.377,2.773,1.377a35.655,35.655,0,0,0,4.98-.4h.059q.2,0,.215.225a7.5,7.5,0,0,1,.186,1.641V.391q0,.3-.225.3a39.312,39.312,0,0,1-4.951.264q-5.02,0-5.02-3.3a3.878,3.878,0,0,1,1.113-2.725,11.536,11.536,0,0,1,3.105-2.148,1.927,1.927,0,0,0-.3-1.1.961.961,0,0,0-.781-.283h-.117a4.91,4.91,0,0,0-2.764,1.445q-.928.908-2,2.178-.146.176-.244.176-.078,0-.215-.137a8.6,8.6,0,0,1-1.143-1.318.335.335,0,0,1-.078-.186.29.29,0,0,1,.137-.215,20.62,20.62,0,0,0,4.189-4.961q-1.4.059-3.2.059-.225,0-.283-.322-.068-.381-.2-1.65.957.039,2.012.039,1.27,0,2.588-.068a16.421,16.421,0,0,0,.6-1.719A5.093,5.093,0,0,0,108.291-16.5Zm16.914-.029q1.211.029,2.08.137.3,0,.3.2a2.167,2.167,0,0,1-.146.439,3.275,3.275,0,0,0-.117,1.1v.684h.957l2.217-.039a.309.309,0,0,1,.2.039.336.336,0,0,1,.029.176v1.406q0,.156-.039.186a.365.365,0,0,1-.186.029l-2.217-.039h-.957V-10.4h1.338l2.6-.039a.309.309,0,0,1,.2.039.365.365,0,0,1,.029.186V-8.8q0,.176-.049.215a.305.305,0,0,1-.176.029l-2.6-.049h-1.338v1.729h1.035l2.461-.039q.166,0,.2.039a.336.336,0,0,1,.029.176l-.039,2.021v.7l.039,2.256a1.56,1.56,0,0,1-.459,1.279,2.719,2.719,0,0,1-1.68.381.991.991,0,0,1-.576-.1,1.165,1.165,0,0,1-.146-.5,3.9,3.9,0,0,0-.439-1.27,7.243,7.243,0,0,0,.879.068q.459,0,.459-.508V-5.117h-1.758V-2.48l.039,3.838q0,.205-.215.205h-1.631q-.215,0-.215-.205l.039-3.818V-5.117h-1.66v2.959l.039,1.875a.318.318,0,0,1-.034.19.294.294,0,0,1-.181.034h-1.611q-.156,0-.186-.039a.365.365,0,0,1-.029-.186l.039-1.973V-4.883L121.68-6.7q0-.156.039-.186a.365.365,0,0,1,.186-.029l2.48.039h.957V-8.6h-1.68l-2.627.049q-.156,0-.186-.049a.394.394,0,0,1-.029-.2v-1.416q0-.166.039-.2a.336.336,0,0,1,.176-.029l2.627.039h1.68v-1.816h-1.9q-.264.615-.537,1.143-.205.439-.361.439a1.244,1.244,0,0,1-.479-.244,4.6,4.6,0,0,0-1.221-.576A11.015,11.015,0,0,0,122.383-15a6.147,6.147,0,0,0,.1-.937,15.445,15.445,0,0,1,1.738.381q.3.078.3.244a.66.66,0,0,1-.137.332,2.1,2.1,0,0,0-.205.586l-.117.42h1.279v-.664A12.1,12.1,0,0,0,125.205-16.533ZM133.379-.82A18.324,18.324,0,0,0,135.3-.7a1,1,0,0,0,.7-.176.868.868,0,0,0,.156-.605v-12.1a19.679,19.679,0,0,0-.156-2.812,18.838,18.838,0,0,1,2.139.117q.342.029.342.215a1.415,1.415,0,0,1-.146.42,9.008,9.008,0,0,0-.117,2.021v8.447l.059,3.994a2.345,2.345,0,0,1-.723,2.041,2.706,2.706,0,0,1-1.064.42,12.093,12.093,0,0,1-1.8.1q-.469,0-.557-.1a1.554,1.554,0,0,1-.176-.537A5.926,5.926,0,0,0,133.379-.82Zm-1.143-14.121q1.094.029,2.012.137.3.039.3.225a.687.687,0,0,1-.059.244q-.068.166-.078.2A19.5,19.5,0,0,0,134.355-12v5.518l.039,2.646q0,.146-.039.181a.371.371,0,0,1-.205.034h-1.6q-.156,0-.186-.039a.336.336,0,0,1-.029-.176l.039-2.646v-5.5A25.079,25.079,0,0,0,132.236-14.941Zm13.887,5.918a16.357,16.357,0,0,0,2.314-3.252,17.351,17.351,0,0,0,1.348-2.988,7.343,7.343,0,0,0,.322-1.523q1.328.254,1.973.449.381.088.381.293a.48.48,0,0,1-.186.381,2.479,2.479,0,0,0-.518.977q-.312.85-.615,1.484h5.225l2.471-.039a.356.356,0,0,1,.215.039.394.394,0,0,1,.029.2v1.465a.332.332,0,0,1-.039.205.462.462,0,0,1-.205.029l-2.471-.039h-3.262v2.383h2.559L157.881-9a.309.309,0,0,1,.2.039.336.336,0,0,1,.029.176v1.465a.294.294,0,0,1-.034.181.318.318,0,0,1-.19.034l-2.217-.039h-2.559V-4.7h2.559l2.256-.039q.225,0,.225.2v1.484a.345.345,0,0,1-.034.2q-.034.039-.19.039l-2.256-.039h-2.559v1.1l.039,3.115q0,.156-.049.2a.305.305,0,0,1-.176.029h-1.7q-.156,0-.186-.049a.305.305,0,0,1-.029-.176l.039-3.115v-9.59h-.8a23.179,23.179,0,0,1-2.4,3.613q-.264.322-.381.322-.146,0-.381-.4A4.33,4.33,0,0,0,146.123-9.023Zm-5.4.205a18.091,18.091,0,0,0,4.063-6.582,8,8,0,0,0,.361-1.436q1.582.439,1.934.576.322.137.322.3a.489.489,0,0,1-.205.361,2.22,2.22,0,0,0-.439.84,28.384,28.384,0,0,1-1.172,2.637V-1.7l.039,3.037a.309.309,0,0,1-.039.2.365.365,0,0,1-.186.029h-1.7q-.156,0-.186-.039a.365.365,0,0,1-.029-.186l.039-3.037V-6.3q0-.762.039-2.52a20.289,20.289,0,0,1-1.5,1.836q-.205.244-.342.244-.176,0-.254-.342A4.4,4.4,0,0,0,140.723-8.818Zm24.619-6.963a24.927,24.927,0,0,1,2.5.361q.479.117.479.381a2.42,2.42,0,0,1-.205.664,13.438,13.438,0,0,0-.273,2.432q-.3,4.629-.3,7.744a3.66,3.66,0,0,0,.371,2.07,1.948,1.948,0,0,0,1.465.41,7.753,7.753,0,0,0,3.506-.986,13.2,13.2,0,0,0,3.506-2.7,6.536,6.536,0,0,0,.459,1.9,1.51,1.51,0,0,1,.156.479.94.94,0,0,1-.4.625,11.252,11.252,0,0,1-3.887,2.334,10.786,10.786,0,0,1-3.691.664A3.681,3.681,0,0,1,166.064-.42a4.734,4.734,0,0,1-.8-3.057q0-1.865.283-8.643.029-1.016.029-1.387A9.438,9.438,0,0,0,165.342-15.781ZM189.18-4.395q-.078-1.875-.1-2.383-.84.02-1.514.02-1.406,0-2.607-.107-.293,0-.322-.332a10.086,10.086,0,0,1-.117-1.7,26.836,26.836,0,0,0,3.223.186q.625,0,1.279-.029l-.039-2.295q-1.191.039-2.012.039a24.98,24.98,0,0,1-2.773-.137.3.3,0,0,1-.342-.283q-.088-.732-.137-1.8a51.317,51.317,0,0,0,5.244.2q0-.576-.039-1.943a6.318,6.318,0,0,0-.244-1.338,11.812,11.812,0,0,1,2.52.361.366.366,0,0,1,.283.381.41.41,0,0,1-.059.215,2.467,2.467,0,0,0-.3.967q-.01.225-.02.605-.01.439-.02.674a36.12,36.12,0,0,0,4.375-.605.7.7,0,0,1,.146-.02q.176,0,.2.264A10.569,10.569,0,0,1,195.9-12q0,.293-.215.322a42.772,42.772,0,0,1-4.619.518l.02,2.266q.908-.059,3.916-.518a.683.683,0,0,1,.166-.029q.137,0,.156.186.059,1.143.059,1.641,0,.254-.3.283-2.1.342-3.916.479.088,2.021.137,2.822a18.246,18.246,0,0,1,5.3,2.412.42.42,0,0,1,.176.283.827.827,0,0,1-.039.2,4.486,4.486,0,0,1-.879,1.484.307.307,0,0,1-.254.156.309.309,0,0,1-.225-.1,16.073,16.073,0,0,0-3.975-2.275A2.69,2.69,0,0,1,190.254.547a5.5,5.5,0,0,1-2.91.615,4.958,4.958,0,0,1-3.154-.879,2.341,2.341,0,0,1-.928-1.914A2.435,2.435,0,0,1,184.5-3.76a4.966,4.966,0,0,1,2.764-.713Q188.242-4.473,189.18-4.395Zm.039,1.895a8.043,8.043,0,0,0-1.855-.234q-2.158,0-2.158,1.055,0,.9,1.982.9a2.223,2.223,0,0,0,1.816-.6A2.074,2.074,0,0,0,189.219-2.5Zm20.723-10.6q-.01-.293-.02-.918-.01-.469-.02-.742a8.392,8.392,0,0,0-.244-1.465,17.45,17.45,0,0,1,2.344.283q.557.1.557.381a1.051,1.051,0,0,1-.176.459,1.919,1.919,0,0,0-.166.576q-.01.127-.039,1.279,2.686-.1,6.143-.1.186,0,.234.059a.451.451,0,0,1,.059.244q.02.391.02.762t-.02.762q0,.264-.254.264h-.078q-1.816-.059-3.857-.059-1.23,0-2.246.01,0,2.5.02,3.721a5.694,5.694,0,0,1,.3,1.982A7.321,7.321,0,0,1,208.936.859a2.036,2.036,0,0,1-.781.381,1.121,1.121,0,0,1-.6-.3,4.237,4.237,0,0,0-1.523-.791,7.994,7.994,0,0,0,2.93-2.119,5.123,5.123,0,0,0,1.172-2.285,2.105,2.105,0,0,1-1.875.8,2.577,2.577,0,0,1-2.08-.918,3.209,3.209,0,0,1-.7-2.148,2.836,2.836,0,0,1,1.016-2.295,3.018,3.018,0,0,1,2-.7,2.309,2.309,0,0,1,1.523.4L210-11.162q-4.336.244-6.924.605a3.379,3.379,0,0,0-.6.146,1.476,1.476,0,0,1-.342.088.344.344,0,0,1-.342-.283,13.612,13.612,0,0,1-.5-2.012q.3.029.635.029.3,0,1.807-.107Q205.352-12.832,209.941-13.1Zm-1.279,5.137a1.323,1.323,0,0,0-.947.361,1.234,1.234,0,0,0-.381.938,1.364,1.364,0,0,0,.42,1.064,1.248,1.248,0,0,0,.859.3,1.354,1.354,0,0,0,1.016-.391,1.389,1.389,0,0,0,.352-1,1.211,1.211,0,0,0-.41-.986A1.348,1.348,0,0,0,208.662-7.959Z" transform="translate(850 547)"/>
  </g>
</svg>
